<svg id="Layer_2" data-name="Layer 2" xmlns="http://www.w3.org/2000/svg" xmlns:xlink="http://www.w3.org/1999/xlink" viewBox="0 0 17 10"><defs><style>.cls-1{fill:none;clip-rule:evenodd;}.cls-2{opacity:0.9;}.cls-3{clip-path:url(#clip-path);}.cls-4,.cls-5{fill:#fff;}.cls-5{fill-rule:evenodd;}</style><clipPath id="clip-path"><path class="cls-1" d="M-121.8,3.57A5.29,5.29,0,0,0-119.552.642a10.03,10.03,0,0,1-3.242,1.284,5.025,5.025,0,0,0-3.73-1.672,5.2,5.2,0,0,0-5.107,5.292,5.614,5.614,0,0,0,.131,1.207,14.34,14.34,0,0,1-10.528-5.531,5.414,5.414,0,0,0-.693,2.661,5.346,5.346,0,0,0,2.273,4.407,4.979,4.979,0,0,1-2.314-.663c0,0.023,0,.045,0,0.066a5.251,5.251,0,0,0,4.1,5.191,4.991,4.991,0,0,1-1.347.185,4.972,4.972,0,0,1-.96-0.092A5.138,5.138,0,0,0-136.2,16.65a10.024,10.024,0,0,1-6.344,2.266,10.428,10.428,0,0,1-1.22-.073,14.107,14.107,0,0,0,7.831,2.376c9.4,0,14.534-8.064,14.534-15.056,0-.232,0-0.461-0.016-0.687a10.659,10.659,0,0,0,2.547-2.741,9.984,9.984,0,0,1-2.933.834"/></clipPath></defs><title>down-chevron</title><rect class="cls-4" x="-247.607" y="-381.039" width="375" height="684"/><path class="cls-5" d="M8.66,4.973C10.559,3.647,12.4,2.4,14.195,1.09a0.874,0.874,0,0,1,1.477.278c1.445,2.108,1.4,1.676-.468,3-1.91,1.359-3.854,2.67-5.755,4.042a1.113,1.113,0,0,1-1.532.032q-3.3-2.38-6.661-4.66A0.873,0.873,0,0,1,.985,2.309C2.52,0.192,2.1.427,4.049,1.754,5.582,2.8,7.092,3.876,8.66,4.973"/></svg>