<svg id="Layer_1" data-name="Layer 1" xmlns="http://www.w3.org/2000/svg" viewBox="0 0 830 539.686"><defs><style>.cls-1{fill:#1a213e;fill-rule:evenodd;}</style></defs><title>Future of Britain illo__generator</title><path class="cls-1" d="M253.629,3.3c0,0.053,69.876,2.21,77.436,3.514,10.661,1.839,21.278,1.862,31.2,3.993,11.987,2.575,29.042,3.848,35.838,11.34l-0.32.479L338.745,60.637l-15.2,9.743c-1.715,1.136-4.893,2.218-5.92,3.993l-1.6,6.868a10.019,10.019,0,0,1,4.32,3.035c5.125,5.149-1.6,10.711-3.52,15.013l10.559,3.035c5.938,1.878,11.863,3.424,17.439,5.59,21.131,8.207,41.2,15.061,57.917,27.311,3.81,2.793,7.948,5.769,10.879,9.423,6.5,8.109,13.046,16.345,18.879,25.075l5.6,9.1,1.44,3.035,21.6,13.9c14.874,9.345,29.3,19.933,44,29.388,0.347,4.313.659,8.686-1.28,11.819-5.693,9.2-31.37,3.431-44,4.312l-10.4-.479-2.88,6.868c-2.775,5.4-7.79,9.41-10.079,14.854l1.76,4.951c1.383,4.561,3.474,16.389,2.56,22.36-1,6.564-3,10.362-4,16.291-0.915,5.451,1.193,9.769,2.56,13.256,1.519,3.875,5.7,6.762,8.16,9.9,6.194,7.919,12.411,15.615,18.079,24.117,2.514,3.77,5.774,7.919,6.88,12.937,1.81,8.215-11.568,15.5-16.639,17.728-2.709,1.193-6.261,2.155-7.84,4.472-3.814,5.6,4.73,11.83,2.4,18.048-0.979,2.612-7.76,10.509-7.36,11.02,2.14,4.4,4.659,8.256.8,13.256-1.409,1.826-5.357,2.862-5.92,5.271-0.619,2.65,1.667,5.209,2.4,6.868,2.1,4.75,5.32,10.887,4,18.208-3.345,18.549-16.785,18.628-35.518,21.562-4.673.732-15.164,1.42-20.319,0.639-6.463-.979-20.96-0.778-25.6,1.118-7.6,3.107-12.664,8.824-18.559,13.576a82.711,82.711,0,0,0-12.159,12.618c-8.407,10.475-16.958,20.573-24.319,32.263H89.119L90.6,541.7s27.519-28.057,33.6-34.02l11.839-11.659,22.719-21.242-0.32-5.75c-1.662-11.351,4.756-11.33,14.879-10.861l16.8-17.888v-0.16c-5.255-.148-10.685-2.2-15.039-3.673-14.335-4.856-26.506-10.308-37.6-18.208L125,407.86c-1.138-.917-2.356-3.04-3.52-3.354-2.264,5.464-7.1,10.441-10.4,15.173-7.563,10.834-15.419,21.178-24.959,30.027-2.69,2.5-5.543,5.3-9.12,6.868-3.181,1.392-7.6-.63-10.559-1.6-7.5-2.446-21.807-5.551-24.479-12.138-1.326-3.269,3.078-5.494,4.48-6.868a97.588,97.588,0,0,0,15.2-18.367c11.3-18.323,12.081-45.556,4.64-69.317-3.169-10.12-7.72-18.82-11.679-28.11-1.01-2.37-3.17-4.776-4-7.028C45.584,299.542,37.644,287.8,31.88,274.817c-8.887-20.026-17.734-39.6-24.639-62.13-9.875-32.22-6.746-72.781,7.68-97.427C39.324,73.569,78.258,44.727,125,25.34c14.128-5.86,29.5-9.639,45.438-13.736,11.936-3.069,24.793-3.632,37.6-6.069l18.239-1.6C234.856,3.619,253.949,3.246,253.629,3.3Z" transform="translate(-1.521 -3.294)"/><path class="cls-1" d="M787.043,56.165c0.583,0.443-4.96,67.3-6.88,90.24l-14.879-7.666L687.528,273.379c2.9,0.991,5.44,3.239,8.64,3.993,1.653-.107,23.508,3.845,25.6,4.312,7.109,1.589,20.07-2.847,24.319-5.111,14.854-7.916,15.515-24.474,20.159-42.325,3.379-12.989,7.381-25.538,14.239-35.138,7.772-10.878,20.63-18.624,35.038-22.839,3.1-.906,14.127-4.111,15.839-1.757h0.16c-0.354,3.761-5.211,10.358-7.04,13.576-4.136,7.279-7.534,14.616-11.679,21.721l-5.76,10.7H806.4l-1.92-1.118c-0.661-4.292-2.665-15.951-6.88-16.291-3.548,3.727-5.7,14.273-7.68,19.645-8.052,21.889-3.525,53.938-21.759,68.678-9.009,7.283-25.043,11.073-39.358,12.138a50.3,50.3,0,0,1-14.879-1.437c-7.861-1.741-14.817-2.62-22.559-4.632-9.508-2.47-21.469.571-23.039,8.465,3.04,1.818,4.142,6.92.16,8.625-0.123,8.063-5.719,12.56-12.639,14.055L535.535,542.98h-40c1.484-2.557,8.373-15.6,10.079-18.687,2.653-4.528,4.762-9.16,7.36-13.576l27.359-49.991,13.759-25.235c2.056-3.5,5.6-11.659,5.76-11.5-0.293.294,7.786-13.789,7.84-13.9,15.731-28.533,50.611-94.339,52.8-98.385-2.962-5.861-2.831-9.724.16-14.694-0.332-.684,2.773-3.248,4-4.153-0.535-3.721,2.147-5.454,4.16-6.868l4.16,1.278a54.182,54.182,0,0,1,3.84-3.993c1.821-5.253-6.164-13.661-8.32-15.812-9.549-9.53-21.471-16.858-29.439-27.95-3.188-4.438-5.676-10.3-7.84-15.492a83.034,83.034,0,0,1-3.84-12.138c-5.415-22.148,12.768-36.485,24.159-45.519,4.586-4.152,20.639-18.474,23.679-21.721a153.814,153.814,0,0,0,11.519-16.61c-2.771-4.78-16.051,1.978-19.519,3.194l-2.08-1.278v-0.8l4.64-8.625L644.33,94.657c2.37-3.681,3.556-9.235,7.04-11.5l0.32,0.16v0.16c-0.137.839,1.9,2.713,2.4,3.833l4.64,11.5c4.066,12.8,4.515,28.77-.16,40.568C653,153.442,643,161.96,634.25,172.6l-7.04,7.986c-6.714,6.343-13.811,14.018-15.2,25.075a22.668,22.668,0,0,0,1.28,9.264c5.207,16.917,13.781,21.658,24.479,32.422,1.993,2.005,13.049,9.706,16.319,8.465l42.4-72.671,5.44-9.423,10.719-18.367,20.959-33.381-16.8-9.264v-0.16" transform="translate(-1.521 -3.294)"/><path class="cls-1" d="M496.821,537.5" transform="translate(-1.521 -3.294)"/></svg>