<?xml version="1.0" encoding="utf-8"?>
<!-- Generator: Adobe Illustrator 21.0.2, SVG Export Plug-In . SVG Version: 6.00 Build 0)  -->
<svg version="1.1" id="Layer_1" xmlns="http://www.w3.org/2000/svg" xmlns:xlink="http://www.w3.org/1999/xlink" x="0px" y="0px"
	 viewBox="0 0 830 539.7" style="enable-background:new 0 0 830 539.7;" xml:space="preserve">
<style type="text/css">
	.st0{clip-path:url(#SVGID_2_);fill:#1A213E;}
	.st1{clip-path:url(#SVGID_2_);fill:#FFFFFF;stroke:#000000;stroke-miterlimit:10;}
</style>
<title>Future of Britain illo__generator</title>
<g>
	<defs>
		<rect id="SVGID_1_" width="830" height="539.7"/>
	</defs>
	<clipPath id="SVGID_2_">
		<use xlink:href="#SVGID_1_"  style="overflow:visible;"/>
	</clipPath>
	<path class="st0" d="M589.4,621.6"/>
	<circle class="st1" cx="357" cy="693" r="0"/>
	<path class="st0" d="M412.3,268.1"/>
	<polyline class="st0" points="622.8,480.2 662,472.7 635,502.4 654.4,537.6 618.6,520.5 591.5,549.6 596.8,509.7 560.4,492.1 
		599.4,484.6 604.3,445.8 622.8,480.2 	"/>
	<polyline class="st0" points="655,44.4 694.2,36.9 667.1,66.6 686.5,101.9 650.7,84.8 623.7,113.9 628.9,73.9 592.5,56.3 
		631.6,48.9 636.4,10 655,44.4 	"/>
	<polyline class="st0" points="713.2,349.1 752.4,341.6 725.3,371.3 744.8,406.5 708.9,389.4 681.9,418.6 687.1,378.6 650.7,361 
		689.8,353.6 694.6,314.7 713.2,349.1 	"/>
	<polyline class="st0" points="734.1,197 773.3,189.5 746.2,219.2 765.6,254.4 729.8,237.3 702.8,266.4 708,226.5 671.6,208.9 
		710.6,201.4 715.5,162.6 734.1,197 	"/>
	<polyline class="st0" points="217.7,13 256.9,5.5 229.9,35.2 249.3,70.4 213.4,53.3 186.4,82.4 191.6,42.5 155.3,24.9 194.3,17.4 
		199.2,-21.4 217.7,13 	"/>
	<polyline class="st0" points="130.8,145 170,137.5 142.9,167.2 162.3,202.5 126.5,185.3 99.4,214.5 104.6,174.5 68.3,157 
		107.3,149.5 112.2,110.6 130.8,145 	"/>
	<polyline class="st0" points="119.2,302.7 158.4,295.2 131.4,324.9 150.8,360.2 114.9,343 87.9,372.2 93.1,332.2 56.7,314.7 
		95.8,307.2 100.6,268.3 119.2,302.7 	"/>
	<polyline class="st0" points="189,449.7 228.2,442.2 201.1,471.9 220.6,507.1 184.7,490 157.7,519.2 162.9,479.2 126.5,461.6 
		165.6,454.2 170.4,415.3 189,449.7 	"/>
</g>
</svg>
