<?xml version="1.0" encoding="utf-8"?>
<!-- Generator: Adobe Illustrator 21.0.2, SVG Export Plug-In . SVG Version: 6.00 Build 0)  -->
<svg version="1.1" id="Layer_1" xmlns="http://www.w3.org/2000/svg" xmlns:xlink="http://www.w3.org/1999/xlink" x="0px" y="0px"
	 viewBox="0 0 830 539.7" style="enable-background:new 0 0 830 539.7;" xml:space="preserve">
<style type="text/css">
	.st0{fill:#00384F;}
</style>
<title>Future of Britain illo__generator</title>
<path class="st0" d="M415.7,274.5"/>
<polyline class="st0" points="425.2,23.3 455.8,23.3 431.2,41.7 440.7,71 416.2,53 391.7,71 401.4,41.7 376.6,23.3 407,23.3 
	416.2,-5.3 425.2,23.3 "/>
<polyline class="st0" points="426.6,495.5 457.1,495.5 432.5,514 442.1,543.3 417.6,525.3 393.1,543.3 402.7,514 377.9,495.5 
	408.3,495.5 417.6,467 426.6,495.5 "/>
<polyline class="st0" points="543.5,464.2 574.1,464.2 549.5,482.7 559,511.9 534.5,493.9 510,511.9 519.7,482.7 494.8,464.2 
	525.3,464.2 534.5,435.7 543.5,464.2 "/>
<polyline class="st0" points="543.5,54.4 574.1,54.4 549.5,72.8 559,102.1 534.5,84.1 510,102.1 519.7,72.8 494.8,54.4 525.3,54.4 
	534.5,25.8 543.5,54.4 "/>
<polyline class="st0" points="630.3,141.1 660.9,141.1 636.2,159.6 645.8,188.9 621.3,170.9 596.8,188.9 606.4,159.6 581.6,141.1 
	612.1,141.1 621.3,112.6 630.3,141.1 "/>
<polyline class="st0" points="630.3,378.6 660.9,378.6 636.2,397.1 645.8,426.4 621.3,408.3 596.8,426.4 606.4,397.1 581.6,378.6 
	612.1,378.6 621.3,350.1 630.3,378.6 "/>
<polyline class="st0" points="659.2,258.4 689.7,258.4 665.1,276.8 674.7,306.1 650.1,288.1 625.6,306.1 635.3,276.8 610.5,258.4 
	640.9,258.4 650.1,229.8 659.2,258.4 "/>
<polyline class="st0" points="306,54.6 336.6,54.6 312,73.1 321.5,102.4 297,84.4 272.5,102.4 282.2,73.1 257.4,54.6 287.8,54.6 
	297,26.1 306,54.6 "/>
<polyline class="st0" points="221.7,141.5 252.2,141.5 227.6,159.9 237.1,189.2 212.6,171.2 188.1,189.2 197.8,159.9 173,141.5 
	203.4,141.5 212.6,112.9 221.7,141.5 "/>
<polyline class="st0" points="190.3,258.4 220.8,258.4 196.2,276.8 205.8,306.1 181.3,288.1 156.8,306.1 166.4,276.8 141.6,258.4 
	172.1,258.4 181.3,229.8 190.3,258.4 "/>
<polyline class="st0" points="221.7,378.9 252.2,378.9 227.6,397.4 237.1,426.7 212.6,408.6 188.1,426.7 197.8,397.4 173,378.9 
	203.4,378.9 212.6,350.4 221.7,378.9 "/>
<polyline class="st0" points="307.2,464.5 337.8,464.5 313.2,483 322.7,512.3 298.2,494.2 273.7,512.3 283.4,483 258.5,464.5 
	289,464.5 298.2,436 307.2,464.5 "/>
</svg>
