<svg id="Layer_2" data-name="Layer 2" xmlns="http://www.w3.org/2000/svg" xmlns:xlink="http://www.w3.org/1999/xlink" viewBox="0 0 27 23"><defs><style>.cls-1{fill:none;clip-rule:evenodd;}.cls-2{opacity:0.9;}.cls-3{clip-path:url(#clip-path);}.cls-4{fill:#eb3330;}</style><clipPath id="clip-path"><path class="cls-1" d="M-24.138,3.507A5.29,5.29,0,0,0-21.892.579a10.03,10.03,0,0,1-3.242,1.284A5.025,5.025,0,0,0-28.865.192a5.2,5.2,0,0,0-5.107,5.292,5.614,5.614,0,0,0,.131,1.207A14.34,14.34,0,0,1-44.369,1.16a5.414,5.414,0,0,0-.693,2.661,5.346,5.346,0,0,0,2.273,4.407A4.979,4.979,0,0,1-45.1,7.566c0,0.023,0,.045,0,0.066A5.251,5.251,0,0,0-41,12.823a4.991,4.991,0,0,1-1.347.185,4.972,4.972,0,0,1-.96-0.092,5.138,5.138,0,0,0,4.772,3.673,10.024,10.024,0,0,1-6.344,2.266,10.428,10.428,0,0,1-1.22-.073,14.107,14.107,0,0,0,7.831,2.376c9.4,0,14.534-8.064,14.534-15.056,0-.232,0-0.461-0.016-0.687a10.659,10.659,0,0,0,2.547-2.741,9.984,9.984,0,0,1-2.933.834"/></clipPath></defs><title>like</title><path class="cls-4" d="M13.342,22.674a2.076,2.076,0,0,1-1.453-.667q-0.749-.74-1.492-1.487l-3.009-3q-2.251-2.243-4.5-4.488A7.2,7.2,0,0,1,2.546,3.1a7.1,7.1,0,0,1,5.24-2.4A7.473,7.473,0,0,1,13.293,3.08l0.037,0.04c0.175-.163.348-0.323,0.522-0.481a6.987,6.987,0,0,1,7.039-1.617,6.841,6.841,0,0,1,4.919,5.461,6.9,6.9,0,0,1-1.952,6.476q-3.292,3.321-6.621,6.607l-2.467,2.452A2.031,2.031,0,0,1,13.342,22.674ZM7.878,2.693H7.811A5.028,5.028,0,0,0,4.049,4.416a5.216,5.216,0,0,0,.254,7.2Q6.549,13.859,8.8,16.1l3.013,3.007q0.739,0.741,1.481,1.478c0.015,0.016.029,0.028,0.042,0.039l0.024-.023,2.47-2.453q3.313-3.29,6.608-6.6a4.915,4.915,0,0,0,1.413-4.671A4.879,4.879,0,0,0,20.3,2.934a4.95,4.95,0,0,0-5.11,1.189c-0.271.244-.536,0.494-0.812,0.754L13.233,5.951,11.824,4.438A5.394,5.394,0,0,0,7.878,2.693Z"/></svg>