<svg id="Layer_1" data-name="Layer 1" xmlns="http://www.w3.org/2000/svg" xmlns:xlink="http://www.w3.org/1999/xlink" viewBox="0 0 38 34.069"><defs><style>.cls-1,.cls-2{fill:none;}.cls-1{clip-rule:evenodd;}.cls-3{opacity:0.9;}.cls-4{clip-path:url(#clip-path);}.cls-5{clip-path:url(#clip-path-2);}.cls-6{fill:#fff;}</style><clipPath id="clip-path" transform="translate(5.653 5.31)"><path class="cls-1" d="M22.862,4.557a5.29,5.29,0,0,0,2.246-2.928,10.03,10.03,0,0,1-3.242,1.284,5.025,5.025,0,0,0-3.73-1.672,5.2,5.2,0,0,0-5.107,5.292,5.614,5.614,0,0,0,.131,1.207A14.34,14.34,0,0,1,2.631,2.21a5.414,5.414,0,0,0-.693,2.661A5.346,5.346,0,0,0,4.212,9.278,4.979,4.979,0,0,1,1.9,8.615c0,0.023,0,.045,0,0.066A5.251,5.251,0,0,0,6,13.872a5.009,5.009,0,0,1-2.307.092,5.138,5.138,0,0,0,4.772,3.673A10.024,10.024,0,0,1,2.118,19.9,10.428,10.428,0,0,1,.9,19.831a14.107,14.107,0,0,0,7.831,2.376c9.4,0,14.534-8.064,14.534-15.056,0-.232,0-0.461-0.016-0.687a10.659,10.659,0,0,0,2.547-2.741,9.984,9.984,0,0,1-2.933.834"/></clipPath><clipPath id="clip-path-2" transform="translate(5.653 5.31)"><rect class="cls-2" x="-86.153" y="-509.275" width="375" height="684"/></clipPath></defs><title>twitterBird</title><g class="cls-3"><g class="cls-4"><g class="cls-5"><rect class="cls-6" width="38" height="34.069"/></g></g></g></svg>